<svg width="48" height="48" viewBox="0 0 48 48" fill="none" xmlns="http://www.w3.org/2000/svg">
<g clip-path="url(#clip0_2371_10236)">
<path d="M45.5313 32.1942L32.1942 45.5313C31.712 46.0129 31.0585 46.2834 30.377 46.2834C29.6956 46.2834 29.042 46.0129 28.5599 45.5313L2.09133 19.0628C1.95834 18.9356 1.85545 18.7804 1.79019 18.6083C1.72494 18.4363 1.69897 18.2518 1.71419 18.0685L3.73705 4.93705C3.75355 4.62414 3.88528 4.32841 4.10684 4.10684C4.32841 3.88528 4.62414 3.75355 4.93705 3.73705L18.0685 1.71419C18.2518 1.69897 18.4363 1.72494 18.6083 1.79019C18.7804 1.85545 18.9356 1.95834 19.0628 2.09133L45.5313 28.5599C46.0129 29.042 46.2834 29.6956 46.2834 30.377C46.2834 31.0585 46.0129 31.712 45.5313 32.1942V32.1942Z" stroke="#373D4A" stroke-width="1.71429" stroke-linecap="round" stroke-linejoin="round"/>
<path d="M14.0912 15.8055C15.038 15.8055 15.8055 15.038 15.8055 14.0912C15.8055 13.1445 15.038 12.377 14.0912 12.377C13.1445 12.377 12.377 13.1445 12.377 14.0912C12.377 15.038 13.1445 15.8055 14.0912 15.8055Z" stroke="#373D4A" stroke-width="1.71429" stroke-linecap="round" stroke-linejoin="round"/>
</g>
<defs>
<clipPath id="clip0_2371_10236">
<rect width="48" height="48" fill="white"/>
</clipPath>
</defs>
</svg>
