<svg width="30" height="24" viewBox="0 0 30 24" fill="none" xmlns="http://www.w3.org/2000/svg">
<path d="M26.5004 6.03423C26.5181 6.28952 26.5181 6.54481 26.5181 6.80246C26.5181 14.653 20.5532 23.7072 9.64607 23.7072V23.7025C6.42409 23.7072 3.26903 22.7825 0.556641 21.0389C1.02514 21.0954 1.496 21.1236 1.96802 21.1248C4.63814 21.1272 7.23193 20.2295 9.33256 18.5766C6.79513 18.5283 4.57003 16.8707 3.79272 14.4507C4.68158 14.6225 5.59745 14.5872 6.46988 14.3483C3.70348 13.7883 1.71322 11.353 1.71322 8.52481C1.71322 8.49893 1.71322 8.47423 1.71322 8.44952C2.53751 8.90952 3.46042 9.16481 4.40447 9.19305C1.79894 7.44834 0.995789 3.9754 2.56921 1.26011C5.57984 4.97187 10.0218 7.22834 14.7902 7.46717C14.3123 5.40364 14.9652 3.24128 16.5057 1.7907C18.894 -0.458716 22.6503 -0.343422 24.8953 2.04834C26.2233 1.78599 27.4962 1.29775 28.661 0.60599C28.2183 1.98128 27.2919 3.14952 26.0543 3.89187C27.2296 3.75305 28.378 3.43775 29.4594 2.95658C28.6633 4.15187 27.6606 5.19305 26.5004 6.03423Z" fill="#1D9BF0"/>
</svg>
