<svg width="24" height="24" viewBox="0 0 24 24" fill="none" xmlns="http://www.w3.org/2000/svg">
<g clip-path="url(#clip0_2167_4898)">
<path d="M8 7.5C9.38071 7.5 10.5 6.38071 10.5 5C10.5 3.61929 9.38071 2.5 8 2.5C6.61929 2.5 5.5 3.61929 5.5 5C5.5 6.38071 6.61929 7.5 8 7.5Z" fill="#FFBFC5"/>
<path d="M20 6C21.1046 6 22 5.10457 22 4C22 2.89543 21.1046 2 20 2C18.8954 2 18 2.89543 18 4C18 5.10457 18.8954 6 20 6Z" fill="#C2F3FF"/>
<path d="M19.5 16C20.6046 16 21.5 15.1046 21.5 14C21.5 12.8954 20.6046 12 19.5 12C18.3954 12 17.5 12.8954 17.5 14C17.5 15.1046 18.3954 16 19.5 16Z" fill="#C9F7CA"/>
<path d="M16.483 12.2162C17.4142 11.287 18.676 10.7651 19.9915 10.7651C21.307 10.7651 22.5688 11.287 23.5 12.2162" stroke="#191919" stroke-linecap="round" stroke-linejoin="round"/>
<path d="M11.7679 7.518C12.2289 7.05729 12.5946 6.51026 12.8441 5.90817C13.0936 5.30609 13.222 4.66074 13.222 4.009C13.222 3.35726 13.0936 2.71191 12.8441 2.10983C12.5946 1.50774 12.2289 0.96071 11.7679 0.5" stroke="#191919" stroke-linecap="round" stroke-linejoin="round"/>
<path d="M18.075 8.24905L21.584 7.08105" stroke="#191919" stroke-linecap="round" stroke-linejoin="round"/>
<path d="M15.736 5.91186L16.906 2.40186" stroke="#191919" stroke-linecap="round" stroke-linejoin="round"/>
<path d="M7.96497 4.771C8.03127 4.771 8.09486 4.79734 8.14175 4.84422C8.18863 4.8911 8.21497 4.95469 8.21497 5.021" stroke="#191919" stroke-linecap="round" stroke-linejoin="round"/>
<path d="M7.71497 5.021C7.71497 4.95469 7.74131 4.8911 7.78819 4.84422C7.83508 4.79734 7.89867 4.771 7.96497 4.771" stroke="#191919" stroke-linecap="round" stroke-linejoin="round"/>
<path d="M7.96497 5.271C7.89867 5.271 7.83508 5.24466 7.78819 5.19777C7.74131 5.15089 7.71497 5.0873 7.71497 5.021" stroke="#191919" stroke-linecap="round" stroke-linejoin="round"/>
<path d="M8.21497 5.021C8.21497 5.0873 8.18863 5.15089 8.14175 5.19777C8.09486 5.24466 8.03127 5.271 7.96497 5.271" stroke="#191919" stroke-linecap="round" stroke-linejoin="round"/>
<path d="M15.465 7.771C15.5313 7.771 15.5949 7.79734 15.6418 7.84422C15.6887 7.8911 15.715 7.95469 15.715 8.021" stroke="#191919" stroke-linecap="round" stroke-linejoin="round"/>
<path d="M15.215 8.021C15.215 7.95469 15.2413 7.8911 15.2882 7.84422C15.3351 7.79734 15.3987 7.771 15.465 7.771" stroke="#191919" stroke-linecap="round" stroke-linejoin="round"/>
<path d="M15.465 8.271C15.3987 8.271 15.3351 8.24466 15.2882 8.19777C15.2413 8.15089 15.215 8.0873 15.215 8.021" stroke="#191919" stroke-linecap="round" stroke-linejoin="round"/>
<path d="M15.715 8.021C15.715 8.0873 15.6887 8.15089 15.6418 8.19777C15.5949 8.24466 15.5313 8.271 15.465 8.271" stroke="#191919" stroke-linecap="round" stroke-linejoin="round"/>
<path d="M19.465 13.771C19.5313 13.771 19.5949 13.7973 19.6418 13.8442C19.6887 13.8911 19.715 13.9547 19.715 14.021" stroke="#191919" stroke-linecap="round" stroke-linejoin="round"/>
<path d="M19.215 14.021C19.215 13.9547 19.2413 13.8911 19.2882 13.8442C19.3351 13.7973 19.3987 13.771 19.465 13.771" stroke="#191919" stroke-linecap="round" stroke-linejoin="round"/>
<path d="M19.465 14.271C19.3987 14.271 19.3351 14.2447 19.2882 14.1978C19.2413 14.1509 19.215 14.0873 19.215 14.021" stroke="#191919" stroke-linecap="round" stroke-linejoin="round"/>
<path d="M19.715 14.021C19.715 14.0873 19.6887 14.1509 19.6418 14.1978C19.5949 14.2447 19.5313 14.271 19.465 14.271" stroke="#191919" stroke-linecap="round" stroke-linejoin="round"/>
<path d="M19.965 3.771C20.0313 3.771 20.0949 3.79734 20.1418 3.84422C20.1887 3.8911 20.215 3.95469 20.215 4.021" stroke="#191919" stroke-linecap="round" stroke-linejoin="round"/>
<path d="M19.715 4.021C19.715 3.95469 19.7413 3.8911 19.7882 3.84422C19.8351 3.79734 19.8987 3.771 19.965 3.771" stroke="#191919" stroke-linecap="round" stroke-linejoin="round"/>
<path d="M19.965 4.271C19.8987 4.271 19.8351 4.24466 19.7882 4.19777C19.7413 4.15089 19.715 4.0873 19.715 4.021" stroke="#191919" stroke-linecap="round" stroke-linejoin="round"/>
<path d="M20.215 4.021C20.215 4.0873 20.1887 4.15089 20.1418 4.19777C20.0949 4.24466 20.0313 4.271 19.965 4.271" stroke="#191919" stroke-linecap="round" stroke-linejoin="round"/>
<path d="M15.145 16.575L2.48397 23.341C2.22886 23.4774 1.93663 23.5281 1.65048 23.4857C1.36433 23.4432 1.09942 23.3098 0.894927 23.1052C0.690425 22.9006 0.557174 22.6356 0.514863 22.3494C0.472553 22.0632 0.52343 21.771 0.659974 21.516L7.42497 8.85498L15.145 16.575Z" fill="#FFEF5E"/>
<path d="M11.285 12.715L7.42496 8.85498L0.659955 21.516C0.523604 21.7714 0.473311 22.064 0.51655 22.3503C0.55979 22.6366 0.694253 22.9013 0.899955 23.105L11.285 12.715Z" fill="#FFF9BF"/>
<path d="M15.145 16.575L2.48397 23.341C2.22886 23.4774 1.93663 23.5281 1.65048 23.4857C1.36433 23.4432 1.09942 23.3098 0.894927 23.1052C0.690425 22.9006 0.557174 22.6356 0.514863 22.3494C0.472553 22.0632 0.52343 21.771 0.659974 21.516L7.42497 8.85498" stroke="#191919" stroke-linecap="round" stroke-linejoin="round"/>
<path d="M15.3906 16.3873C16.367 15.4109 15.4172 12.8783 13.2693 10.7304C11.1214 8.58249 8.58879 7.63275 7.61248 8.60906C6.63616 9.58537 7.58591 12.1181 9.7338 14.2659C11.8817 16.4138 14.4143 17.3636 15.3906 16.3873Z" fill="#FFBC44" stroke="#191919" stroke-linecap="round" stroke-linejoin="round"/>
</g>
<defs>
<clipPath id="clip0_2167_4898">
<rect width="24" height="24" fill="white"/>
</clipPath>
</defs>
</svg>
