<svg width="24" height="14" viewBox="0 0 24 14" fill="none" xmlns="http://www.w3.org/2000/svg">
<path d="M0.857178 1H7.71432" stroke="#148F18" stroke-width="1.71429" stroke-linecap="round" stroke-linejoin="round"/>
<path d="M0.857178 6.14307H6.00003" stroke="#148F18" stroke-width="1.71429" stroke-linecap="round" stroke-linejoin="round"/>
<path d="M0.857178 11.2856H4.28575" stroke="#148F18" stroke-width="1.71429" stroke-linecap="round" stroke-linejoin="round"/>
<path d="M8.57141 13H21.4286C21.8832 13 22.3192 12.8194 22.6407 12.4979C22.9622 12.1764 23.1428 11.7404 23.1428 11.2857V2.71429C23.1428 2.25963 22.9622 1.82359 22.6407 1.5021C22.3192 1.18061 21.8832 1 21.4286 1H12" stroke="#148F18" stroke-width="1.71429" stroke-linecap="round" stroke-linejoin="round"/>
<path d="M13.7144 9.57157C15.1345 9.57157 16.2858 8.4203 16.2858 7.00014C16.2858 5.57998 15.1345 4.42871 13.7144 4.42871C12.2942 4.42871 11.1429 5.57998 11.1429 7.00014C11.1429 8.4203 12.2942 9.57157 13.7144 9.57157Z" stroke="#148F18" stroke-width="1.71429" stroke-linecap="round" stroke-linejoin="round"/>
</svg>
