<svg width="48" height="48" viewBox="0 0 48 48" fill="none" xmlns="http://www.w3.org/2000/svg">
<path d="M27.0658 16.4492C26.3352 16.4492 24.9446 16.4492 23.5267 16.4492C21.572 16.4492 19.9873 18.0338 19.9873 19.9885C19.9873 21.9431 21.5719 23.5277 23.5266 23.5277C25.4812 23.5277 27.0658 25.1123 27.0658 27.0669C27.0658 29.0216 25.4812 30.6062 23.5266 30.6062H19.9873" stroke="#373D4A" stroke-width="1.71429" stroke-linecap="round" stroke-linejoin="round"/>
<path d="M23.5254 16.4504V12.9111" stroke="#373D4A" stroke-width="1.71429" stroke-linecap="round" stroke-linejoin="round"/>
<path d="M23.5254 34.1516V30.6123" stroke="#373D4A" stroke-width="1.71429" stroke-linecap="round" stroke-linejoin="round"/>
<path d="M4.91602 19.2991C7.01838 10.8304 14.6713 4.55371 23.7903 4.55371C32.9093 4.55371 40.5621 10.8304 42.6645 19.2991" stroke="#7C859D" stroke-width="1.71429" stroke-linecap="round" stroke-linejoin="round"/>
<path d="M42.6645 28.7012C40.5624 37.1699 32.9093 43.4466 23.7903 43.4466C14.6714 43.4466 7.01842 37.1699 4.91602 28.7012" stroke="#7C859D" stroke-width="1.71429" stroke-linecap="round" stroke-linejoin="round"/>
<path d="M36.6431 16.5038L42.8039 19.4502L45.3753 13.4502" stroke="#7C859D" stroke-width="1.71429" stroke-linecap="round" stroke-linejoin="round"/>
<path d="M11.1937 31.4276L4.96101 28.6367L2.54102 34.6995" stroke="#7C859D" stroke-width="1.71429" stroke-linecap="round" stroke-linejoin="round"/>
</svg>
