<svg width="40" height="40" viewBox="0 0 40 40" fill="none" xmlns="http://www.w3.org/2000/svg">
<path d="M34.2859 29.9996V35.7139C34.2859 36.4716 33.9847 37.1984 33.449 37.7342C32.9133 38.2699 32.1864 38.571 31.4287 38.571H4.28585C3.52808 38.571 2.80137 38.2699 2.26555 37.7342C1.72973 37.1984 1.42871 36.4716 1.42871 35.7139V14.2853C1.42871 9.55144 5.26628 5.71387 10.0001 5.71387H28.5716V12.8567" stroke="#7C859D" stroke-width="1.71429" stroke-linecap="round" stroke-linejoin="round"/>
<path d="M37.1424 21.4287H27.1424C26.3535 21.4287 25.7139 22.0683 25.7139 22.8573V28.5716C25.7139 29.3604 26.3535 30.0001 27.1424 30.0001H37.1424C37.9313 30.0001 38.571 29.3604 38.571 28.5716V22.8573C38.571 22.0683 37.9313 21.4287 37.1424 21.4287Z" stroke="#7C859D" stroke-width="1.71429" stroke-linecap="round" stroke-linejoin="round"/>
<path d="M34.2857 21.4288V15.7146C34.2857 14.9568 33.9846 14.2301 33.4489 13.6943C32.9131 13.1585 32.1863 12.8574 31.4286 12.8574H28.5714H10" stroke="#7C859D" stroke-width="1.71429" stroke-linecap="round" stroke-linejoin="round"/>
</svg>
