<svg width="48" height="48" viewBox="0 0 48 48" fill="none" xmlns="http://www.w3.org/2000/svg">
<path d="M41.1434 36.0003V42.8574C41.1434 43.7667 40.782 44.6389 40.1392 45.2818C39.4963 45.9246 38.6241 46.286 37.7148 46.286H5.14342C4.23409 46.286 3.36203 45.9246 2.71905 45.2818C2.07607 44.6389 1.71484 43.7667 1.71484 42.8574V17.1431C1.71484 11.4625 6.31993 6.85742 12.0006 6.85742H34.2863V15.4289" stroke="#373D4A" stroke-width="1.71429" stroke-linecap="round" stroke-linejoin="round"/>
<path d="M44.5712 25.7139H32.5712C31.6245 25.7139 30.8569 26.4814 30.8569 27.4282V34.2853C30.8569 35.2319 31.6245 35.9996 32.5712 35.9996H44.5712C45.5178 35.9996 46.2855 35.2319 46.2855 34.2853V27.4282C46.2855 26.4814 45.5178 25.7139 44.5712 25.7139Z" stroke="#373D4A" stroke-width="1.71429" stroke-linecap="round" stroke-linejoin="round"/>
<path d="M41.1429 25.7144V18.8573C41.1429 17.948 40.7815 17.0759 40.1386 16.4329C39.4958 15.7899 38.6235 15.4287 37.7143 15.4287H34.2857H12" stroke="#373D4A" stroke-width="1.71429" stroke-linecap="round" stroke-linejoin="round"/>
</svg>
